<svg xmlns="http://www.w3.org/2000/svg" xmlns:xlink="http://www.w3.org/1999/xlink" id="Layer_2" data-name="Layer 2" viewBox="0 0 322.22 249.18"><defs><style>      .cls-1 {        fill: url(#linear-gradient-2);      }      .cls-1, .cls-2 {        opacity: .5;      }      .cls-2 {        fill: url(#linear-gradient);      }      .cls-3 {        fill: #fff;      }      .cls-4 {        fill: #b03025;      }    </style><linearGradient id="linear-gradient" x1="0" y1="110.35" x2="322.22" y2="110.35" gradientUnits="userSpaceOnUse"><stop offset="0" stop-color="#fff"></stop><stop offset=".3" stop-color="#000"></stop><stop offset=".7" stop-color="#000"></stop><stop offset="1" stop-color="#fff"></stop></linearGradient><linearGradient id="linear-gradient-2" y1="151.9" y2="151.9" xlink:href="#linear-gradient"></linearGradient></defs><g id="Layer_3" data-name="Layer 3"><g><path class="cls-4" d="M160.56,0l93.42,93.18-104.47,105.18s-44.12,43.06-90.71,4.59c-46.59-38.47-8.12-93.48-8.12-93.48L160.56,0Z"></path><path class="cls-4" d="M262.81,102.35l-93.18,93.88s47.65,50.12,97.76,0-4.59-93.88-4.59-93.88Z"></path><g><path class="cls-3" d="M10.26,140.73c-.22,0-.34-.12-.38-.34l-.67-3.5h-4.27l-.65,3.5c-.05.22-.17.34-.38.34H1.33c-.26,0-.38-.14-.31-.41l3.98-18.46c.05-.24.19-.34.41-.34h3.34c.22,0,.36.1.41.34l3.98,18.46c.05.26-.05.41-.34.41h-2.54ZM7.07,125.73l-1.54,8.38h3.07l-1.54-8.38Z"></path><path class="cls-3" d="M22.91,137.56h5.71c.26,0,.38.14.38.38v2.4c0,.26-.12.38-.38.38h-8.59c-.24,0-.38-.12-.38-.38v-18.43c0-.24.14-.38.38-.38h2.5c.26,0,.38.14.38.38v15.65Z"></path><path class="cls-3" d="M40.17,137.56h5.71c.26,0,.38.14.38.38v2.4c0,.26-.12.38-.38.38h-8.59c-.24,0-.38-.12-.38-.38v-18.43c0-.24.14-.38.38-.38h2.5c.26,0,.38.14.38.38v15.65Z"></path><path class="cls-3" d="M68.08,121.53c.24,0,.38.14.38.38v18.43c0,.24-.14.38-.38.38h-2.5c-.26,0-.38-.14-.38-.38v-18.43c0-.24.12-.38.38-.38h2.5Z"></path><path class="cls-3" d="M85.83,121.53c.24,0,.38.14.38.38v18.43c0,.24-.14.38-.38.38h-2.38c-.22,0-.36-.1-.43-.31l-3.67-10.25h-.12v10.18c0,.24-.12.38-.38.38h-2.5c-.24,0-.38-.14-.38-.38v-18.43c0-.24.14-.38.38-.38h2.38c.22,0,.36.1.43.31l3.65,10.2h.14v-10.13c0-.24.12-.38.38-.38h2.5Z"></path><path class="cls-3" d="M105.54,121.91c0-.24.14-.38.38-.38h5.76c2.26,0,3.46,1.2,3.46,3.46v5.86c0,2.23-1.2,3.46-3.46,3.46h-2.88v6.05c0,.24-.12.38-.38.38h-2.5c-.24,0-.38-.14-.38-.38v-18.43ZM110.91,131.13c.65,0,.96-.36.96-.96v-4.51c0-.62-.31-.96-.96-.96h-2.11v6.43h2.11Z"></path><path class="cls-3" d="M131.78,140.73c-.22,0-.34-.12-.38-.34l-.67-3.5h-4.27l-.65,3.5c-.05.22-.17.34-.38.34h-2.57c-.26,0-.38-.14-.31-.41l3.98-18.46c.05-.24.19-.34.41-.34h3.34c.22,0,.36.1.41.34l3.98,18.46c.05.26-.05.41-.34.41h-2.54ZM128.58,125.73l-1.54,8.38h3.07l-1.54-8.38Z"></path><path class="cls-3" d="M151.78,130.84c0,1.61-.6,2.66-1.75,3.17l1.66,6.29c.07.29-.07.43-.34.43h-2.5c-.24,0-.36-.12-.41-.34l-1.61-6.1h-1.66v6.05c0,.24-.14.38-.38.38h-2.5c-.24,0-.38-.14-.38-.38v-18.43c0-.24.14-.38.38-.38h6.02c2.26,0,3.46,1.2,3.46,3.46v5.86ZM147.55,131.13c.62,0,.96-.34.96-.96v-4.51c0-.62-.34-.96-.96-.96h-2.38v6.43h2.38Z"></path><path class="cls-3" d="M168.51,121.53c.26,0,.38.14.38.38v2.4c0,.24-.12.38-.38.38h-2.78v15.65c0,.26-.12.38-.38.38h-2.5c-.24,0-.38-.12-.38-.38v-15.65h-2.78c-.24,0-.38-.14-.38-.38v-2.4c0-.24.14-.38.38-.38h8.83Z"></path><path class="cls-3" d="M186.99,121.53c.36,0,.53.22.38.55l-4.39,10.68v7.49c0,.31-.17.48-.48.48h-2.3c-.31,0-.48-.17-.48-.48v-7.49l-4.39-10.68c-.14-.34.02-.55.38-.55h2.4c.29,0,.46.12.55.38l2.69,6.89,2.69-6.89c.1-.26.26-.38.55-.38h2.4Z"></path><path class="cls-3" d="M215.53,130.84c0,1.61-.6,2.66-1.75,3.17l1.66,6.29c.07.29-.07.43-.34.43h-2.5c-.24,0-.36-.12-.41-.34l-1.61-6.1h-1.66v6.05c0,.24-.14.38-.38.38h-2.5c-.24,0-.38-.14-.38-.38v-18.43c0-.24.14-.38.38-.38h6.02c2.26,0,3.46,1.2,3.46,3.46v5.86ZM211.31,131.13c.62,0,.96-.34.96-.96v-4.51c0-.62-.34-.96-.96-.96h-2.38v6.43h2.38Z"></path><path class="cls-3" d="M232.64,124.31c0,.24-.1.41-.38.41h-6v4.8h4.58c.24,0,.38.14.38.41v2.38c0,.26-.14.41-.38.41h-4.58v4.85h6c.29,0,.38.12.38.38v2.4c0,.24-.1.38-.38.38h-8.83c-.22,0-.36-.14-.36-.38v-18.43c0-.24.14-.38.36-.38h8.83c.29,0,.38.14.38.38v2.4Z"></path><path class="cls-3" d="M250.85,121.53c.24,0,.38.14.38.38v18.43c0,.24-.14.38-.38.38h-2.38c-.22,0-.36-.1-.43-.31l-3.67-10.25h-.12v10.18c0,.24-.12.38-.38.38h-2.5c-.24,0-.38-.14-.38-.38v-18.43c0-.24.14-.38.38-.38h2.38c.22,0,.36.1.43.31l3.65,10.2h.14v-10.13c0-.24.12-.38.38-.38h2.5Z"></path><path class="cls-3" d="M266.77,121.53c.26,0,.38.14.38.38v2.4c0,.24-.12.38-.38.38h-2.78v15.65c0,.26-.12.38-.38.38h-2.5c-.24,0-.38-.12-.38-.38v-15.65h-2.78c-.24,0-.38-.14-.38-.38v-2.4c0-.24.14-.38.38-.38h8.83Z"></path><path class="cls-3" d="M283.79,140.73c-.22,0-.34-.12-.38-.34l-.67-3.5h-4.27l-.65,3.5c-.05.22-.17.34-.38.34h-2.57c-.26,0-.38-.14-.31-.41l3.98-18.46c.05-.24.19-.34.41-.34h3.34c.22,0,.36.1.41.34l3.98,18.46c.05.26-.05.41-.34.41h-2.54ZM280.6,125.73l-1.54,8.38h3.07l-1.54-8.38Z"></path><path class="cls-3" d="M296.45,137.56h5.71c.26,0,.38.14.38.38v2.4c0,.26-.12.38-.38.38h-8.59c-.24,0-.38-.12-.38-.38v-18.43c0-.24.14-.38.38-.38h2.5c.26,0,.38.14.38.38v15.65Z"></path><path class="cls-3" d="M316.46,121.53c2.26,0,3.46,1.2,3.46,3.46v2.54c0,.24-.12.38-.38.38h-2.5c-.24,0-.38-.14-.38-.38v-1.87c0-.62-.31-.96-.96-.96h-1.15c-.6,0-.96.34-.96.96v3.31l5.71,1.87c.41.17.62.43.62.89v5.54c0,2.26-1.2,3.46-3.46,3.46h-2.69c-2.23,0-3.46-1.2-3.46-3.46v-2.52c0-.26.14-.38.38-.38h2.5c.26,0,.38.12.38.38v1.85c0,.65.36.96.96.96h1.15c.62,0,.96-.31.96-.96v-3.19l-5.69-1.87c-.43-.14-.65-.43-.65-.89v-5.66c0-2.26,1.22-3.46,3.46-3.46h2.69Z"></path></g><polygon class="cls-4" points="160.56 200.12 184.1 249.18 137.16 249.18 160.56 200.12"></polygon><polygon class="cls-2" points="311.4 103.76 300.58 103.76 21.65 103.76 17.75 103.76 0 103.76 0 116.94 21.65 116.94 21.65 112.71 300.58 112.71 300.58 116.94 322.22 116.94 322.22 103.76 311.4 103.76"></polygon><polygon class="cls-1" points="10.82 158.49 21.65 158.49 300.58 158.49 304.47 158.49 322.22 158.49 322.22 145.31 300.58 145.31 300.58 149.55 21.65 149.55 21.65 145.31 0 145.31 0 158.49 10.82 158.49"></polygon></g></g></svg>