<svg xmlns="http://www.w3.org/2000/svg" xmlns:xlink="http://www.w3.org/1999/xlink" id="Layer_1" x="0px" y="0px" viewBox="0 0 118.1 128" style="enable-background:new 0 0 118.1 128;" xml:space="preserve"><g id="_x31_2" transform="translate(-4.958)">	<path id="icon_10_" d="M123,74.2c0,15.9-12.9,28.8-28.8,28.8c-10.4,0-20-5.6-25.1-14.7c0-0.1,0-0.2,0-0.3c0,0-0.1,0-0.2,0  c0.1,0.1,0.1,0.2,0.2,0.3c0.5,11.8,3.2,29.1,13.7,39.8H45.2c10.5-10.7,13.3-28,13.8-39.9c0.1-0.2,0.3-0.5,0.4-0.8  c-0.1,0-0.3-0.1-0.4-0.1c0,0.3,0,0.6,0,0.9c-7.7,13.9-25.3,18.9-39.2,11.2S0.9,74.1,8.6,60.2c5.1-9.1,14.7-14.8,25.2-14.8  c2.5,0,5,0.3,7.4,1c-3.9-5-6-11.2-6-17.5C35.4,12.9,48.5,0.2,64.4,0.4C80,0.6,92.6,13.2,92.8,28.8c0,6.4-2.1,12.5-6,17.5  c15.4-4.1,31.2,5,35.3,20.4C122.7,69.2,123,71.7,123,74.2L123,74.2z"></path></g></svg>