<svg xmlns="http://www.w3.org/2000/svg" xmlns:xlink="http://www.w3.org/1999/xlink" id="Layer_1" x="0px" y="0px" viewBox="0 0 105.3 128" style="enable-background:new 0 0 105.3 128;" xml:space="preserve"><g id="_x31_0" transform="translate(-11.329)">	<path id="icon_8_" d="M116.7,72.5c-0.5,16.3-13.3,29-29.1,29c-5.2,0-10.2-1.4-14.7-4c-1.5-0.8-2.8-1.8-4.1-2.9  c0.7,10.4,3.4,24.5,12.2,33.4H47.1c8.8-9,11.5-23,12.2-33.4c-1.3,1.1-2.7,2.1-4.2,2.9c-4.5,2.6-9.5,4-14.7,4  c-15.8,0-28.6-12.7-29.1-29c-0.3-8.2,2.3-16.4,7.8-24.6C23.4,41.4,64,0,64,0s40.6,41.4,44.9,47.8C114.3,56,116.9,64.3,116.7,72.5z"></path></g></svg>